<svg width="145" height="145" viewBox="0 0 145 145" fill="none" xmlns="http://www.w3.org/2000/svg">
<path d="M108.5 78.1699V120.17H24.5V36.1699H54.62C54.92 31.9099 55.94 27.8899 57.5 24.1699H24.5C17.9 24.1699 12.5 29.5699 12.5 36.1699V120.17C12.5 126.77 17.9 132.17 24.5 132.17H108.5C115.1 132.17 120.5 126.77 120.5 120.17V90.1699L108.5 78.1699ZM99.5 108.17H33.5L50 86.9899L61.76 101.15L78.26 79.9099L99.5 108.17ZM116.3 53.5099C118.94 49.3099 120.5 44.4499 120.5 39.1699C120.5 24.2299 108.44 12.1699 93.5 12.1699C78.56 12.1699 66.5 24.2299 66.5 39.1699C66.5 54.1099 78.56 66.1699 93.44 66.1699C98.72 66.1699 103.64 64.6099 107.78 61.9699L126.5 80.6899L135.02 72.1699L116.3 53.5099ZM93.5 54.1699C89.5218 54.1699 85.7064 52.5896 82.8934 49.7765C80.0804 46.9635 78.5 43.1482 78.5 39.1699C78.5 35.1917 80.0804 31.3764 82.8934 28.5633C85.7064 25.7503 89.5218 24.1699 93.5 24.1699C97.4782 24.1699 101.294 25.7503 104.107 28.5633C106.92 31.3764 108.5 35.1917 108.5 39.1699C108.5 43.1482 106.92 46.9635 104.107 49.7765C101.294 52.5896 97.4782 54.1699 93.5 54.1699Z" fill="url(#paint0_linear_168_628)"/>
<defs>
<linearGradient id="paint0_linear_168_628" x1="73.76" y1="12.1699" x2="73.76" y2="132.17" gradientUnits="userSpaceOnUse">
<stop stop-color="#768AFF"/>
<stop offset="1" stop-color="#425DFF"/>
</linearGradient>
</defs>
</svg>
