<svg width="144" height="145" viewBox="0 0 144 145" fill="none" xmlns="http://www.w3.org/2000/svg">
<path d="M84.312 11.168C83.3904 10.4148 82.3286 9.85193 81.1881 9.51188C80.0475 9.17183 78.8508 9.06138 77.6672 9.18694C76.4837 9.31249 75.3368 9.67155 74.2929 10.2433C73.2491 10.8151 72.329 11.5882 71.586 12.518L45.522 45.17H57.042L78.615 18.134L85.545 23.795L68.175 45.17H79.767L92.52 29.474L107.982 42.101L105.3 45.17H108C110.684 45.1672 113.353 45.5645 115.92 46.349C116.9 44.5097 117.212 42.3871 116.802 40.3435C116.391 38.3 115.285 36.4622 113.67 35.144L84.312 11.168ZM27 49.67C27 48.4765 27.4741 47.3319 28.318 46.488C29.1619 45.6441 30.3065 45.17 31.5 45.17H36.522L43.677 36.17H31.5C27.9196 36.17 24.4858 37.5923 21.9541 40.1241C19.4223 42.6558 18 46.0896 18 49.67V103.67C18 109.637 20.3705 115.36 24.5901 119.58C28.8097 123.799 34.5326 126.17 40.5 126.17H108C112.774 126.17 117.352 124.274 120.728 120.898C124.104 117.522 126 112.944 126 108.17V72.17C126 67.3961 124.104 62.8177 120.728 59.4421C117.352 56.0664 112.774 54.17 108 54.17H31.5C30.3065 54.17 29.1619 53.6959 28.318 52.852C27.4741 52.0081 27 50.8635 27 49.67ZM94.5 90.17H103.5C104.693 90.17 105.838 90.6441 106.682 91.488C107.526 92.3319 108 93.4765 108 94.67C108 95.8635 107.526 97.0081 106.682 97.852C105.838 98.6959 104.693 99.17 103.5 99.17H94.5C93.3065 99.17 92.1619 98.6959 91.318 97.852C90.4741 97.0081 90 95.8635 90 94.67C90 93.4765 90.4741 92.3319 91.318 91.488C92.1619 90.6441 93.3065 90.17 94.5 90.17Z" fill="url(#paint0_linear_168_632)"/>
<defs>
<linearGradient id="paint0_linear_168_632" x1="72" y1="9.13672" x2="72" y2="126.17" gradientUnits="userSpaceOnUse">
<stop stop-color="#768AFF"/>
<stop offset="1" stop-color="#425DFF"/>
</linearGradient>
</defs>
</svg>
