<svg width="145" height="145" viewBox="0 0 145 145" fill="none" xmlns="http://www.w3.org/2000/svg">
<path d="M120.5 12.1699H48.5C45.3174 12.1699 42.2652 13.4342 40.0147 15.6846C37.7643 17.9351 36.5 20.9873 36.5 24.1699V96.1699C36.5 99.3525 37.7643 102.405 40.0147 104.655C42.2652 106.906 45.3174 108.17 48.5 108.17H120.5C123.683 108.17 126.735 106.906 128.985 104.655C131.236 102.405 132.5 99.3525 132.5 96.1699V24.1699C132.5 20.9873 131.236 17.9351 128.985 15.6846C126.735 13.4342 123.683 12.1699 120.5 12.1699ZM84.5 27.1699C88.4782 27.1699 92.2936 28.7503 95.1066 31.5633C97.9196 34.3764 99.5 38.1917 99.5 42.1699C99.5 46.1482 97.9196 49.9635 95.1066 52.7765C92.2936 55.5896 88.4782 57.1699 84.5 57.1699C80.5218 57.1699 76.7064 55.5896 73.8934 52.7765C71.0804 49.9635 69.5 46.1482 69.5 42.1699C69.5 38.1917 71.0804 34.3764 73.8934 31.5633C76.7064 28.7503 80.5218 27.1699 84.5 27.1699ZM114.5 90.1699H54.5V88.6699C54.5 77.5759 68.024 66.1699 84.5 66.1699C100.976 66.1699 114.5 77.5759 114.5 88.6699V90.1699Z" fill="url(#paint0_linear_168_621)"/>
<path d="M24.5 48.1699H12.5V120.17C12.5 126.788 17.882 132.17 24.5 132.17H96.5V120.17H24.5V48.1699Z" fill="url(#paint1_linear_168_621)"/>
<defs>
<linearGradient id="paint0_linear_168_621" x1="84.5" y1="12.1699" x2="84.5" y2="108.17" gradientUnits="userSpaceOnUse">
<stop stop-color="#768AFF"/>
<stop offset="1" stop-color="#425DFF"/>
</linearGradient>
<linearGradient id="paint1_linear_168_621" x1="54.5" y1="48.1699" x2="54.5" y2="132.17" gradientUnits="userSpaceOnUse">
<stop stop-color="#768AFF"/>
<stop offset="1" stop-color="#425DFF"/>
</linearGradient>
</defs>
</svg>
